PublicHD - High-Definition Bittorrent Community 

  https://publichd.eu 

----------------------------------------- 



Leverage.S05E07.720p.WEB-DL.DD5.1.H.264-POD [PublicHD]



Format                           : Matroska
Format version                   : Version 2
File size                        : 1.26 GiB
Duration                         : 42mn 5s
Overall bit rate                 : 4 277 Kbps
Encoded date                     : UTC 2012-09-04 15:44:03
Writing application              : mkvmerge v4.0.0 ('The Stars were mine' built on Jun  6 2010 16:18:42
Writing library                  : libebml v1.0.0 + libmatroska v1.0.0

Video
ID                               : 1
Format                           : AVC
Format/Info                      : Advanced Video Codec
Format profile                   : High@L3.1
Format settings, CABAC           : No
Format settings, ReFrames        : 2 frames
Format settings, GOP             : M=2, N=49
Codec ID                         : V_MPEG4/ISO/AVC
Duration                         : 42mn 5s
Bit rate                         : 3 808 Kbps
Width                            : 1 280 pixels
Height                           : 720 pixels
Display aspect ratio             : 16:9
Frame rate                       : 23.976 fps
Color space                      : YUV
Chroma subsampling               : 4:2:0
Bit depth                        : 8 bits
Scan type                        : Progressive
Bits/(Pixel*Frame)               : 0.172
Stream size                      : 1.12 GiB (89%)
Language                         : English
Color primaries                  : BT.709-5, BT.1361, IEC 61966-2-4, SMPTE RP177
Transfer characteristics         : BT.709-5, BT.1361
Matrix coefficients              : BT.709-5, BT.1361, IEC 61966-2-4 709, SMPTE RP177

Audio
ID                               : 2
Format                           : AC-3
Format/Info                      : Audio Coding 3
Mode extension                   : CM (complete main)
Codec ID                         : A_AC3
Duration                         : 42mn 5s
Bit rate mode                    : Constant
Bit rate                         : 384 Kbps
Channel(s)                       : 6 channels
Channel positions                : Front: L C R, Side: L R, LFE
Sampling rate                    : 48.0 KHz
Bit depth                        : 16 bits
Compression mode                 : Lossy
Stream size                      : 116 MiB (9%)
Language                         : English